<?xml version="1.0" encoding="UTF-8" standalone="no"?>
<!DOCTYPE svg PUBLIC "-//W3C//DTD SVG 1.1//EN" "http://www.w3.org/Graphics/SVG/1.1/DTD/svg11.dtd">
<svg width="100%" height="100%" viewBox="0 0 872 672" version="1.1" xmlns="http://www.w3.org/2000/svg" xmlns:xlink="http://www.w3.org/1999/xlink" xml:space="preserve" xmlns:serif="http://www.serif.com/" style="fill-rule:evenodd;clip-rule:evenodd;stroke-linejoin:round;stroke-miterlimit:2;">
    <g>
        <path d="M419.831,325.915L419.831,259.94L409.043,262.501L409.043,280.96C406.125,279.547 402.941,278.841 399.493,278.841C393.037,278.841 387.732,281.137 383.487,285.73C379.243,290.322 377.12,296.24 377.12,303.57C377.12,310.901 378.977,316.554 382.691,320.705C386.405,324.767 391.446,326.799 397.901,326.799C400.2,326.799 402.411,326.445 404.533,325.651C406.655,324.944 408.158,324.061 409.043,323.089L409.043,325.915L419.831,325.915ZM409.043,314.875C408.601,315.494 407.628,316.112 406.125,316.73C404.533,317.348 403.295,317.702 402.234,317.702C392.949,317.702 388.351,312.932 388.351,303.305C388.351,298.359 389.5,294.562 391.888,292C394.187,289.351 397.547,288.026 401.792,288.026C404.356,288.026 406.744,288.909 409.043,290.764L409.043,314.875Z" style="fill:rgb(20,82,127);fill-rule:nonzero;"/>
        <path d="M463.034,325.915L463.034,279.724L452.246,279.724L452.246,311.519C451.538,313.197 450.123,314.61 448.09,315.847C445.967,317.172 443.668,317.79 441.192,317.79C435.887,317.79 433.234,314.787 433.234,308.87L433.234,279.724L422.446,279.724L422.446,309.753C422.446,321.146 427.84,326.799 438.539,326.799C440.839,326.799 443.226,326.357 445.967,325.386C448.62,324.414 450.742,323.354 452.246,322.029L452.246,325.915L463.034,325.915Z" style="fill:rgb(20,82,127);fill-rule:nonzero;"/>
        <path d="M510.592,279.724L499.185,279.724L487.335,307.986L476.282,279.724L464.433,279.724L485.302,326.799L489.192,326.799L510.592,279.724Z" style="fill:rgb(20,82,127);fill-rule:nonzero;"/>
        <path d="M536.973,325.032C538.211,326.18 539.626,326.799 541.218,326.799C542.632,326.799 543.87,326.622 544.932,326.269C546.081,325.915 547.054,324.944 547.938,323.354C545.462,321.764 544.224,317.878 544.224,311.784L544.224,301.892C544.224,292.972 542.544,286.878 539.272,283.61C536,280.43 530.872,278.841 523.797,278.841C518.669,278.841 514.247,279.724 510.533,281.49L512.832,289.881C515.574,288.556 519.022,287.849 523.002,287.849C529.899,287.849 533.348,290.587 533.348,295.975C531.667,295.533 530.164,295.357 528.838,295.357C521.498,295.357 515.75,296.858 511.771,299.861C507.792,302.952 505.758,307.103 505.758,312.491C505.758,316.995 507.173,320.616 510.003,323.089C512.921,325.562 516.812,326.799 521.764,326.799C524.416,326.799 526.981,326.269 529.368,325.297C531.844,324.237 533.524,322.913 534.497,321.323C534.939,322.648 535.735,323.884 536.973,325.032ZM533.436,308.428C533.436,314.964 530.164,318.232 523.709,318.232C518.934,318.232 516.546,316.112 516.546,311.961C516.546,306.397 520.791,303.57 529.28,303.57C530.253,303.57 531.579,303.747 533.436,304.1L533.436,308.428Z" style="fill:rgb(20,82,127);fill-rule:nonzero;"/>
        <path d="M547.913,316.642C547.913,323.443 550.389,326.799 555.252,326.799C559.32,326.799 562.15,325.209 563.83,322.029C560.381,320.881 558.701,317.525 558.701,311.873L558.701,259.94L547.913,262.501L547.913,316.642Z" style="fill:rgb(20,82,127);fill-rule:nonzero;"/>
        <path d="M564.796,316.642C564.796,323.443 567.272,326.799 572.135,326.799C576.203,326.799 579.033,325.209 580.713,322.029C577.264,320.881 575.584,317.525 575.584,311.873L575.584,259.94L564.796,262.501L564.796,316.642Z" style="fill:rgb(20,82,127);fill-rule:nonzero;"/>
        <path d="M304.898,277.021C304.898,271.346 309.498,266.746 315.172,266.746C320.847,266.746 325.446,271.346 325.446,277.021C325.446,282.695 320.847,287.294 315.172,287.294C309.498,287.294 304.898,282.695 304.898,277.021ZM341.547,272.371C345.427,272.371 348.571,275.516 348.571,279.396C348.571,283.275 345.427,286.419 341.547,286.419C337.667,286.419 334.523,283.275 334.523,279.396C334.523,275.516 337.667,272.371 341.547,272.371ZM365.333,329.561C360.289,327.938 357.767,322.901 357.767,314.449L357.767,284.714C357.944,283.08 358.042,281.421 358.042,279.739C358.042,254.537 337.612,234.107 312.41,234.107C287.208,234.107 266.778,254.537 266.778,279.739C266.778,281.421 266.876,283.08 267.053,284.714L267.053,314.449C267.053,322.901 264.532,327.938 259.488,329.561C261.967,334.257 266.199,336.604 272.182,336.604C273.415,336.604 274.535,336.447 275.56,336.157C274.797,342.438 272.24,346.285 267.876,347.688C270.475,352.611 274.911,355.072 281.183,355.072C288.801,355.072 292.609,349.793 292.609,339.23L292.609,320.863C293.147,321.123 293.696,321.365 294.246,321.604L294.246,342.783C294.246,351.919 291.521,357.364 286.069,359.117C288.749,364.193 293.323,366.73 299.79,366.73C307.644,366.73 311.57,361.287 311.57,350.396L311.57,325.351C311.851,325.355 312.128,325.372 312.41,325.372C312.692,325.372 312.97,325.355 313.25,325.351L313.25,350.397C313.25,361.288 317.176,366.73 325.03,366.73C331.498,366.73 336.072,364.194 338.751,359.118C333.299,357.365 330.574,351.92 330.574,342.784L330.574,321.604C331.125,321.365 331.673,321.123 332.211,320.863L332.211,339.23C332.211,349.793 336.02,355.072 343.637,355.072C349.909,355.072 354.345,352.611 356.944,347.688C352.581,346.285 350.023,342.438 349.261,336.157C350.285,336.447 351.405,336.604 352.639,336.604C358.622,336.604 362.853,334.257 365.333,329.561Z" style="fill:url(#_Linear1);"/>
    </g>
    <defs>
        <linearGradient id="_Linear1" x1="0" y1="0" x2="1" y2="0" gradientUnits="userSpaceOnUse" gradientTransform="matrix(-0.000003,-79.750102,79.750102,-0.000003,312.41,314.5)"><stop offset="0" style="stop-color:rgb(20,82,127);stop-opacity:1"/><stop offset="0.52" style="stop-color:rgb(97,140,170);stop-opacity:1"/><stop offset="1" style="stop-color:rgb(167,190,207);stop-opacity:1"/></linearGradient>
    </defs>
</svg>
